<mxfile host="app.diagrams.net" modified="2023-05-28T17:49:35.324Z" agent="Mozilla/5.0 (Windows NT 10.0; Win64; x64) AppleWebKit/537.36 (KHTML, like Gecko) Chrome/112.0.0.0 Safari/537.36 OPR/98.0.0.0" etag="1ztfO6Hwz0eMbJwKwCD-" version="21.3.4" type="device">
  <diagram name="Σελίδα-1" id="WVEBd1sjFHavCeA0LY7U">
    <mxGraphModel dx="358" dy="-834" grid="1" gridSize="10" guides="1" tooltips="1" connect="1" arrows="1" fold="1" page="1" pageScale="1" pageWidth="1169" pageHeight="1654" math="0" shadow="0">
      <root>
        <mxCell id="0" />
        <mxCell id="1" parent="0" />
        <mxCell id="YgxCESBMvR3g6pSDMQeH-112" value="" style="edgeStyle=none;rounded=0;orthogonalLoop=1;jettySize=auto;html=1;entryX=0.003;entryY=0.515;entryDx=0;entryDy=0;entryPerimeter=0;exitX=1;exitY=0.3333333333333333;exitDx=0;exitDy=0;exitPerimeter=0;" parent="1" source="YgxCESBMvR3g6pSDMQeH-113" target="YgxCESBMvR3g6pSDMQeH-116" edge="1">
          <mxGeometry relative="1" as="geometry">
            <mxPoint x="3122" y="2551.23" as="sourcePoint" />
            <mxPoint x="2572" y="2470" as="targetPoint" />
          </mxGeometry>
        </mxCell>
        <mxCell id="YgxCESBMvR3g6pSDMQeH-113" value="Χρήστης" style="shape=umlActor;verticalLabelPosition=bottom;verticalAlign=top;html=1;outlineConnect=0;" parent="1" vertex="1">
          <mxGeometry x="2140" y="2750" width="30" height="60" as="geometry" />
        </mxCell>
        <mxCell id="YgxCESBMvR3g6pSDMQeH-114" value="Εμφάνισε" style="ellipse;shape=umlControl;whiteSpace=wrap;html=1;strokeColor=#000000;" parent="1" vertex="1">
          <mxGeometry x="2750" y="2340" width="70" height="75" as="geometry" />
        </mxCell>
        <mxCell id="YgxCESBMvR3g6pSDMQeH-115" value="" style="edgeStyle=none;rounded=0;orthogonalLoop=1;jettySize=auto;html=1;exitX=0.108;exitY=0.878;exitDx=0;exitDy=0;exitPerimeter=0;entryX=0.765;entryY=0.072;entryDx=0;entryDy=0;entryPerimeter=0;" parent="1" source="YgxCESBMvR3g6pSDMQeH-114" target="YgxCESBMvR3g6pSDMQeH-116" edge="1">
          <mxGeometry relative="1" as="geometry">
            <mxPoint x="2504" y="2410" as="sourcePoint" />
            <mxPoint x="2670" y="2370" as="targetPoint" />
          </mxGeometry>
        </mxCell>
        <mxCell id="YgxCESBMvR3g6pSDMQeH-116" value="&lt;font&gt;Σελίδα &quot;Καταχώρηση αθλητικής δραστηριότητας&quot;&lt;/font&gt;" style="shape=umlBoundary;whiteSpace=wrap;html=1;strokeColor=#000000;fontColor=#000000;" parent="1" vertex="1">
          <mxGeometry x="2540" y="2469" width="120" height="100" as="geometry" />
        </mxCell>
        <mxCell id="YgxCESBMvR3g6pSDMQeH-117" value="Καταχωρεί αθλητική δραστηριότητα" style="edgeLabel;html=1;align=center;verticalAlign=middle;resizable=0;points=[];fontSize=12;rotation=-30;" parent="1" vertex="1" connectable="0">
          <mxGeometry x="2420.0005673409605" y="2572.4992896575495" as="geometry">
            <mxPoint x="-9" y="6" as="offset" />
          </mxGeometry>
        </mxCell>
        <mxCell id="YgxCESBMvR3g6pSDMQeH-118" value="" style="edgeStyle=none;rounded=0;orthogonalLoop=1;jettySize=auto;html=1;exitX=0.995;exitY=0.559;exitDx=0;exitDy=0;exitPerimeter=0;entryX=0.012;entryY=0.514;entryDx=0;entryDy=0;entryPerimeter=0;" parent="1" source="YgxCESBMvR3g6pSDMQeH-116" target="YgxCESBMvR3g6pSDMQeH-119" edge="1">
          <mxGeometry relative="1" as="geometry">
            <mxPoint x="2698" y="2215" as="sourcePoint" />
            <mxPoint x="2900" y="2486" as="targetPoint" />
          </mxGeometry>
        </mxCell>
        <mxCell id="YgxCESBMvR3g6pSDMQeH-120" value="" style="edgeStyle=none;rounded=0;orthogonalLoop=1;jettySize=auto;html=1;exitX=0.728;exitY=0.968;exitDx=0;exitDy=0;exitPerimeter=0;" parent="1" source="YgxCESBMvR3g6pSDMQeH-119" target="YgxCESBMvR3g6pSDMQeH-121" edge="1">
          <mxGeometry relative="1" as="geometry">
            <mxPoint x="2810" y="2293" as="sourcePoint" />
            <mxPoint x="3180" y="2500" as="targetPoint" />
          </mxGeometry>
        </mxCell>
        <mxCell id="YgxCESBMvR3g6pSDMQeH-121" value="Calories burned API" style="ellipse;shape=umlEntity;whiteSpace=wrap;html=1;" parent="1" vertex="1">
          <mxGeometry x="3200" y="2560" width="80" height="80" as="geometry" />
        </mxCell>
        <mxCell id="YgxCESBMvR3g6pSDMQeH-122" value="" style="edgeStyle=none;rounded=0;orthogonalLoop=1;jettySize=auto;html=1;exitX=0.384;exitY=0.99;exitDx=0;exitDy=0;exitPerimeter=0;entryX=0.767;entryY=0.208;entryDx=0;entryDy=0;entryPerimeter=0;" parent="1" source="YgxCESBMvR3g6pSDMQeH-119" target="YgxCESBMvR3g6pSDMQeH-166" edge="1">
          <mxGeometry relative="1" as="geometry">
            <mxPoint x="3014" y="2475" as="sourcePoint" />
            <mxPoint x="2940" y="2520" as="targetPoint" />
          </mxGeometry>
        </mxCell>
        <mxCell id="YgxCESBMvR3g6pSDMQeH-123" value="ναι&lt;br style=&quot;font-size: 13px;&quot;&gt;" style="edgeLabel;html=1;align=center;verticalAlign=middle;resizable=0;points=[];fontSize=13;" parent="1" vertex="1" connectable="0">
          <mxGeometry x="3090.0005673409605" y="2389.9992896575495" as="geometry">
            <mxPoint x="-9" y="6" as="offset" />
          </mxGeometry>
        </mxCell>
        <mxCell id="YgxCESBMvR3g6pSDMQeH-124" value="Εμφάνισε" style="ellipse;shape=umlControl;whiteSpace=wrap;html=1;strokeColor=#000000;" parent="1" vertex="1">
          <mxGeometry x="2880" y="2585" width="70" height="75" as="geometry" />
        </mxCell>
        <mxCell id="YgxCESBMvR3g6pSDMQeH-125" value="&lt;font&gt;Σελίδα &quot;Αθλητικές δραστηριότητες&quot;&lt;/font&gt;" style="shape=umlBoundary;whiteSpace=wrap;html=1;strokeColor=#000000;fontColor=#000000;" parent="1" vertex="1">
          <mxGeometry x="2620" y="2560" width="120" height="100" as="geometry" />
        </mxCell>
        <mxCell id="YgxCESBMvR3g6pSDMQeH-126" value="" style="edgeStyle=none;rounded=0;orthogonalLoop=1;jettySize=auto;html=1;exitX=0.008;exitY=0.634;exitDx=0;exitDy=0;exitPerimeter=0;entryX=1.005;entryY=0.392;entryDx=0;entryDy=0;entryPerimeter=0;" parent="1" source="YgxCESBMvR3g6pSDMQeH-124" target="YgxCESBMvR3g6pSDMQeH-125" edge="1">
          <mxGeometry relative="1" as="geometry">
            <mxPoint x="2780" y="2630" as="sourcePoint" />
            <mxPoint x="2744" y="2612" as="targetPoint" />
          </mxGeometry>
        </mxCell>
        <mxCell id="YgxCESBMvR3g6pSDMQeH-127" value="" style="edgeStyle=none;rounded=0;orthogonalLoop=1;jettySize=auto;html=1;exitX=0.554;exitY=1.023;exitDx=0;exitDy=0;exitPerimeter=0;entryX=0.518;entryY=0.096;entryDx=0;entryDy=0;entryPerimeter=0;" parent="1" source="uev7HApPTx16p5mjtVpH-3" target="YgxCESBMvR3g6pSDMQeH-124" edge="1">
          <mxGeometry relative="1" as="geometry">
            <mxPoint x="2823" y="2598" as="sourcePoint" />
            <mxPoint x="2940" y="2550" as="targetPoint" />
          </mxGeometry>
        </mxCell>
        <mxCell id="YgxCESBMvR3g6pSDMQeH-128" value="" style="edgeStyle=none;rounded=0;orthogonalLoop=1;jettySize=auto;html=1;entryX=-0.023;entryY=0.537;entryDx=0;entryDy=0;entryPerimeter=0;exitX=1;exitY=0.3333333333333333;exitDx=0;exitDy=0;exitPerimeter=0;" parent="1" source="YgxCESBMvR3g6pSDMQeH-113" target="YgxCESBMvR3g6pSDMQeH-125" edge="1">
          <mxGeometry relative="1" as="geometry">
            <mxPoint x="2410" y="2490" as="sourcePoint" />
            <mxPoint x="2630" y="2492" as="targetPoint" />
          </mxGeometry>
        </mxCell>
        <mxCell id="YgxCESBMvR3g6pSDMQeH-129" value="Επιλέγει δραστηριότητα" style="edgeLabel;html=1;align=center;verticalAlign=middle;resizable=0;points=[];fontSize=12;rotation=-20;" parent="1" vertex="1" connectable="0">
          <mxGeometry x="2460.0005673409605" y="2649.9992896575495" as="geometry">
            <mxPoint x="-9" y="6" as="offset" />
          </mxGeometry>
        </mxCell>
        <mxCell id="YgxCESBMvR3g6pSDMQeH-130" value="" style="edgeStyle=none;rounded=0;orthogonalLoop=1;jettySize=auto;html=1;exitX=0.968;exitY=0.792;exitDx=0;exitDy=0;exitPerimeter=0;entryX=0.024;entryY=0.39;entryDx=0;entryDy=0;entryPerimeter=0;" parent="1" source="YgxCESBMvR3g6pSDMQeH-125" target="YgxCESBMvR3g6pSDMQeH-131" edge="1">
          <mxGeometry relative="1" as="geometry">
            <mxPoint x="2651" y="2720" as="sourcePoint" />
            <mxPoint x="2810" y="2700" as="targetPoint" />
          </mxGeometry>
        </mxCell>
        <mxCell id="YgxCESBMvR3g6pSDMQeH-131" value="Εμφάνισε" style="ellipse;shape=umlControl;whiteSpace=wrap;html=1;strokeColor=#000000;" parent="1" vertex="1">
          <mxGeometry x="2980" y="2682.5" width="70" height="75" as="geometry" />
        </mxCell>
        <mxCell id="YgxCESBMvR3g6pSDMQeH-132" value="" style="edgeStyle=none;rounded=0;orthogonalLoop=1;jettySize=auto;html=1;exitX=-0.008;exitY=0.656;exitDx=0;exitDy=0;exitPerimeter=0;entryX=1.005;entryY=0.537;entryDx=0;entryDy=0;entryPerimeter=0;" parent="1" source="YgxCESBMvR3g6pSDMQeH-131" target="YgxCESBMvR3g6pSDMQeH-133" edge="1">
          <mxGeometry relative="1" as="geometry">
            <mxPoint x="2746" y="2649" as="sourcePoint" />
            <mxPoint x="2750" y="2720" as="targetPoint" />
          </mxGeometry>
        </mxCell>
        <mxCell id="YgxCESBMvR3g6pSDMQeH-133" value="&lt;font&gt;Σελίδα &quot;Χρόνος ενασχόλησης&quot;&lt;/font&gt;" style="shape=umlBoundary;whiteSpace=wrap;html=1;strokeColor=#000000;fontColor=#000000;" parent="1" vertex="1">
          <mxGeometry x="2620" y="2670" width="120" height="100" as="geometry" />
        </mxCell>
        <mxCell id="YgxCESBMvR3g6pSDMQeH-134" value="" style="edgeStyle=none;rounded=0;orthogonalLoop=1;jettySize=auto;html=1;entryX=-0.005;entryY=0.548;entryDx=0;entryDy=0;entryPerimeter=0;exitX=1;exitY=0.3333333333333333;exitDx=0;exitDy=0;exitPerimeter=0;" parent="1" source="YgxCESBMvR3g6pSDMQeH-113" target="YgxCESBMvR3g6pSDMQeH-133" edge="1">
          <mxGeometry relative="1" as="geometry">
            <mxPoint x="2400" y="2470" as="sourcePoint" />
            <mxPoint x="2627" y="2624" as="targetPoint" />
          </mxGeometry>
        </mxCell>
        <mxCell id="YgxCESBMvR3g6pSDMQeH-135" value="Παραθέτει την ζητούμενη χρονική διάρκεια" style="edgeLabel;html=1;align=center;verticalAlign=middle;resizable=0;points=[];fontSize=12;rotation=-5;" parent="1" vertex="1" connectable="0">
          <mxGeometry x="2460.0005673409605" y="2739.9992896575495" as="geometry">
            <mxPoint x="-1.7154956702346555" y="-8.419986014890235" as="offset" />
          </mxGeometry>
        </mxCell>
        <mxCell id="YgxCESBMvR3g6pSDMQeH-136" value="Υπολόγισε θερμίδες που κάηκαν" style="ellipse;shape=umlControl;whiteSpace=wrap;html=1;strokeColor=#000000;" parent="1" vertex="1">
          <mxGeometry x="2940" y="2832.5" width="90" height="95" as="geometry" />
        </mxCell>
        <mxCell id="YgxCESBMvR3g6pSDMQeH-137" value="" style="edgeStyle=none;rounded=0;orthogonalLoop=1;jettySize=auto;html=1;exitX=-0.027;exitY=0.676;exitDx=0;exitDy=0;exitPerimeter=0;entryX=1.02;entryY=0.43;entryDx=0;entryDy=0;entryPerimeter=0;" parent="1" source="uev7HApPTx16p5mjtVpH-6" target="YgxCESBMvR3g6pSDMQeH-136" edge="1">
          <mxGeometry relative="1" as="geometry">
            <mxPoint x="2877" y="2603" as="sourcePoint" />
            <mxPoint x="3050" y="2890" as="targetPoint" />
          </mxGeometry>
        </mxCell>
        <mxCell id="YgxCESBMvR3g6pSDMQeH-139" value="Εμφάνισε" style="ellipse;shape=umlControl;whiteSpace=wrap;html=1;strokeColor=#000000;" parent="1" vertex="1">
          <mxGeometry x="2600" y="2865" width="70" height="75" as="geometry" />
        </mxCell>
        <mxCell id="YgxCESBMvR3g6pSDMQeH-140" value="&lt;font&gt;Σελίδα &quot;Θερμίδες που κάηκαν&quot;&lt;/font&gt;" style="shape=umlBoundary;whiteSpace=wrap;html=1;strokeColor=#000000;fontColor=#000000;" parent="1" vertex="1">
          <mxGeometry x="2420" y="2840" width="120" height="100" as="geometry" />
        </mxCell>
        <mxCell id="YgxCESBMvR3g6pSDMQeH-145" value="Ανανέωση ημερήσιου αθροίσματος θερμίδων" style="ellipse;shape=umlControl;whiteSpace=wrap;html=1;strokeColor=#000000;" parent="1" vertex="1">
          <mxGeometry x="2750" y="2840" width="100" height="100" as="geometry" />
        </mxCell>
        <mxCell id="YgxCESBMvR3g6pSDMQeH-146" value="&lt;font style=&quot;font-size: 14px;&quot;&gt;User&lt;/font&gt;" style="ellipse;shape=umlEntity;whiteSpace=wrap;html=1;fontSize=16;strokeColor=#000000;fontColor=#000000;" parent="1" vertex="1">
          <mxGeometry x="3000" y="3120" width="100" height="100" as="geometry" />
        </mxCell>
        <mxCell id="YgxCESBMvR3g6pSDMQeH-147" value="" style="edgeStyle=none;rounded=0;orthogonalLoop=1;jettySize=auto;html=1;exitX=0.922;exitY=0.79;exitDx=0;exitDy=0;exitPerimeter=0;entryX=0;entryY=0;entryDx=0;entryDy=0;" parent="1" source="YgxCESBMvR3g6pSDMQeH-145" target="YgxCESBMvR3g6pSDMQeH-146" edge="1">
          <mxGeometry relative="1" as="geometry">
            <mxPoint x="2924" y="3159" as="sourcePoint" />
            <mxPoint x="3106" y="2943" as="targetPoint" />
          </mxGeometry>
        </mxCell>
        <mxCell id="YgxCESBMvR3g6pSDMQeH-148" value="όχι" style="edgeLabel;html=1;align=center;verticalAlign=middle;resizable=0;points=[];fontSize=13;" parent="1" vertex="1" connectable="0">
          <mxGeometry x="3070.0005673409605" y="2289.9992896575495" as="geometry">
            <mxPoint x="-9" y="6" as="offset" />
          </mxGeometry>
        </mxCell>
        <mxCell id="YgxCESBMvR3g6pSDMQeH-149" value="" style="edgeStyle=none;rounded=0;orthogonalLoop=1;jettySize=auto;html=1;exitX=0.123;exitY=0.313;exitDx=0;exitDy=0;exitPerimeter=0;entryX=1.001;entryY=0.748;entryDx=0;entryDy=0;entryPerimeter=0;strokeColor=#FF0000;" parent="1" source="YgxCESBMvR3g6pSDMQeH-119" target="YgxCESBMvR3g6pSDMQeH-150" edge="1">
          <mxGeometry relative="1" as="geometry">
            <mxPoint x="2993" y="2541" as="sourcePoint" />
            <mxPoint x="2640" y="2160" as="targetPoint" />
          </mxGeometry>
        </mxCell>
        <mxCell id="YgxCESBMvR3g6pSDMQeH-150" value="Εμφάνισε μήνυμα για τον ανεπιτυχή εντοπισμό&lt;br&gt;" style="ellipse;shape=umlControl;whiteSpace=wrap;html=1;strokeColor=#000000;fontColor=#FFFFFF;fillColor=#FF0000;" parent="1" vertex="1">
          <mxGeometry x="2895" y="2210" width="90" height="97.5" as="geometry" />
        </mxCell>
        <mxCell id="YgxCESBMvR3g6pSDMQeH-151" value="" style="edgeStyle=none;rounded=0;orthogonalLoop=1;jettySize=auto;html=1;exitX=0.132;exitY=0.28;exitDx=0;exitDy=0;exitPerimeter=0;entryX=1.002;entryY=0.443;entryDx=0;entryDy=0;entryPerimeter=0;strokeColor=#FF0000;" parent="1" source="YgxCESBMvR3g6pSDMQeH-150" target="YgxCESBMvR3g6pSDMQeH-152" edge="1">
          <mxGeometry relative="1" as="geometry">
            <mxPoint x="2708" y="2385" as="sourcePoint" />
            <mxPoint x="2800" y="2220" as="targetPoint" />
            <Array as="points" />
          </mxGeometry>
        </mxCell>
        <mxCell id="YgxCESBMvR3g6pSDMQeH-152" value="Εμφάνισε" style="ellipse;shape=umlControl;whiteSpace=wrap;html=1;strokeColor=#000000;fillColor=#FF0000;fontColor=#FFFFFF;" parent="1" vertex="1">
          <mxGeometry x="2790" y="2210" width="70" height="75" as="geometry" />
        </mxCell>
        <mxCell id="YgxCESBMvR3g6pSDMQeH-153" value="" style="edgeStyle=none;rounded=0;orthogonalLoop=1;jettySize=auto;html=1;exitX=-0.017;exitY=0.57;exitDx=0;exitDy=0;exitPerimeter=0;strokeColor=#FF0000;" parent="1" source="YgxCESBMvR3g6pSDMQeH-152" target="YgxCESBMvR3g6pSDMQeH-154" edge="1">
          <mxGeometry relative="1" as="geometry">
            <mxPoint x="2610" y="2293" as="sourcePoint" />
            <mxPoint x="2630" y="2210" as="targetPoint" />
          </mxGeometry>
        </mxCell>
        <mxCell id="YgxCESBMvR3g6pSDMQeH-154" value="&lt;font&gt;Σελίδα &quot;Δημιουργία δραστηριότητας&quot;&lt;/font&gt;" style="shape=umlBoundary;whiteSpace=wrap;html=1;strokeColor=#000000;fontColor=#FFFFFF;fillColor=#FF0000;" parent="1" vertex="1">
          <mxGeometry x="2570" y="2240" width="120" height="100" as="geometry" />
        </mxCell>
        <mxCell id="YgxCESBMvR3g6pSDMQeH-155" value="" style="edgeStyle=none;rounded=0;orthogonalLoop=1;jettySize=auto;html=1;entryX=-0.019;entryY=0.465;entryDx=0;entryDy=0;entryPerimeter=0;exitX=1;exitY=0.3333333333333333;exitDx=0;exitDy=0;exitPerimeter=0;strokeColor=#FF0000;" parent="1" source="YgxCESBMvR3g6pSDMQeH-113" target="YgxCESBMvR3g6pSDMQeH-154" edge="1">
          <mxGeometry relative="1" as="geometry">
            <mxPoint x="2120" y="2493" as="sourcePoint" />
            <mxPoint x="2570" y="2415" as="targetPoint" />
          </mxGeometry>
        </mxCell>
        <mxCell id="YgxCESBMvR3g6pSDMQeH-156" value="Καταχωρεί όνομα δραστηριότητας και αριθμό θερμίδων" style="edgeLabel;html=1;align=center;verticalAlign=middle;resizable=0;points=[];fontSize=12;rotation=-50;" parent="1" vertex="1" connectable="0">
          <mxGeometry x="2330.0005673409605" y="2534.9992896575495" as="geometry">
            <mxPoint x="-13.746026934670653" y="3.455353003778189" as="offset" />
          </mxGeometry>
        </mxCell>
        <mxCell id="YgxCESBMvR3g6pSDMQeH-161" value="" style="edgeStyle=none;rounded=0;orthogonalLoop=1;jettySize=auto;html=1;strokeColor=#FF0000;entryX=0.941;entryY=0.444;entryDx=0;entryDy=0;entryPerimeter=0;exitX=0.288;exitY=0.155;exitDx=0;exitDy=0;exitPerimeter=0;" parent="1" source="YgxCESBMvR3g6pSDMQeH-154" target="YgxCESBMvR3g6pSDMQeH-162" edge="1">
          <mxGeometry relative="1" as="geometry">
            <mxPoint x="2610" y="2250" as="sourcePoint" />
            <mxPoint x="3080" y="2090" as="targetPoint" />
          </mxGeometry>
        </mxCell>
        <mxCell id="YgxCESBMvR3g6pSDMQeH-162" value="Αποθήκευσε δραστηριότητα" style="ellipse;shape=umlControl;whiteSpace=wrap;html=1;strokeColor=#000000;fillColor=#FF0000;fontColor=#FFFFFF;" parent="1" vertex="1">
          <mxGeometry x="2320" y="2200" width="85" height="90" as="geometry" />
        </mxCell>
        <mxCell id="YgxCESBMvR3g6pSDMQeH-163" value="" style="edgeStyle=none;rounded=0;orthogonalLoop=1;jettySize=auto;html=1;exitX=0.106;exitY=0.9;exitDx=0;exitDy=0;exitPerimeter=0;strokeColor=#FF0000;entryX=0.824;entryY=0.069;entryDx=0;entryDy=0;entryPerimeter=0;" parent="1" source="YgxCESBMvR3g6pSDMQeH-162" target="YgxCESBMvR3g6pSDMQeH-177" edge="1">
          <mxGeometry relative="1" as="geometry">
            <mxPoint x="3050" y="2317.5" as="sourcePoint" />
            <mxPoint x="3250" y="2310" as="targetPoint" />
          </mxGeometry>
        </mxCell>
        <mxCell id="YgxCESBMvR3g6pSDMQeH-165" value="" style="edgeStyle=none;rounded=0;orthogonalLoop=1;jettySize=auto;html=1;exitX=0.939;exitY=0.772;exitDx=0;exitDy=0;exitPerimeter=0;entryX=0.221;entryY=0.227;entryDx=0;entryDy=0;entryPerimeter=0;" parent="1" source="YgxCESBMvR3g6pSDMQeH-133" target="YgxCESBMvR3g6pSDMQeH-136" edge="1">
          <mxGeometry relative="1" as="geometry">
            <mxPoint x="2728" y="2760" as="sourcePoint" />
            <mxPoint x="2940" y="2750" as="targetPoint" />
          </mxGeometry>
        </mxCell>
        <mxCell id="YgxCESBMvR3g6pSDMQeH-166" value="Αποθήκευσε δραστηριότητες&amp;nbsp;" style="ellipse;shape=umlControl;whiteSpace=wrap;html=1;strokeColor=#000000;fontSize=12;" parent="1" vertex="1">
          <mxGeometry x="3060" y="2500" width="90" height="102.5" as="geometry" />
        </mxCell>
        <mxCell id="YgxCESBMvR3g6pSDMQeH-167" value="Λίστα &quot;δραστηριότητες&quot;" style="ellipse;shape=umlEntity;whiteSpace=wrap;html=1;fontSize=11.5;" parent="1" vertex="1">
          <mxGeometry x="2945" y="2390" width="80" height="79" as="geometry" />
        </mxCell>
        <mxCell id="YgxCESBMvR3g6pSDMQeH-119" value="Εντοπίζονται αθλητικές δραστηριότητες;" style="ellipse;shape=umlControl;whiteSpace=wrap;html=1;strokeColor=#000000;" parent="1" vertex="1">
          <mxGeometry x="3060" y="2280" width="100" height="110" as="geometry" />
        </mxCell>
        <mxCell id="YgxCESBMvR3g6pSDMQeH-169" value="" style="edgeStyle=none;rounded=0;orthogonalLoop=1;jettySize=auto;html=1;exitX=0.057;exitY=0.39;exitDx=0;exitDy=0;exitPerimeter=0;entryX=1;entryY=1;entryDx=0;entryDy=0;" parent="1" source="YgxCESBMvR3g6pSDMQeH-166" target="YgxCESBMvR3g6pSDMQeH-167" edge="1">
          <mxGeometry relative="1" as="geometry">
            <mxPoint x="3089" y="2391" as="sourcePoint" />
            <mxPoint x="2930" y="2490" as="targetPoint" />
          </mxGeometry>
        </mxCell>
        <mxCell id="YgxCESBMvR3g6pSDMQeH-170" value="" style="edgeStyle=none;rounded=0;orthogonalLoop=1;jettySize=auto;html=1;exitX=0.273;exitY=0.948;exitDx=0;exitDy=0;exitPerimeter=0;entryX=0.97;entryY=0.465;entryDx=0;entryDy=0;entryPerimeter=0;" parent="1" source="YgxCESBMvR3g6pSDMQeH-166" target="YgxCESBMvR3g6pSDMQeH-124" edge="1">
          <mxGeometry relative="1" as="geometry">
            <mxPoint x="3089" y="2391" as="sourcePoint" />
            <mxPoint x="3049" y="2446" as="targetPoint" />
          </mxGeometry>
        </mxCell>
        <mxCell id="YgxCESBMvR3g6pSDMQeH-171" value="Λίστα &quot;δραστηριότητες&quot;" style="ellipse;shape=umlEntity;whiteSpace=wrap;html=1;fontSize=11.5;" parent="1" vertex="1">
          <mxGeometry x="3190" y="2691" width="80" height="79" as="geometry" />
        </mxCell>
        <mxCell id="YgxCESBMvR3g6pSDMQeH-173" value="" style="edgeStyle=none;rounded=0;orthogonalLoop=1;jettySize=auto;html=1;exitX=-0.036;exitY=0.71;exitDx=0;exitDy=0;exitPerimeter=0;" parent="1" source="YgxCESBMvR3g6pSDMQeH-136" target="YgxCESBMvR3g6pSDMQeH-145" edge="1">
          <mxGeometry relative="1" as="geometry">
            <mxPoint x="3018" y="2859" as="sourcePoint" />
            <mxPoint x="3162" y="2751" as="targetPoint" />
          </mxGeometry>
        </mxCell>
        <mxCell id="YgxCESBMvR3g6pSDMQeH-174" value="" style="edgeStyle=none;rounded=0;orthogonalLoop=1;jettySize=auto;html=1;exitX=-0.01;exitY=0.61;exitDx=0;exitDy=0;exitPerimeter=0;entryX=1.002;entryY=0.465;entryDx=0;entryDy=0;entryPerimeter=0;" parent="1" source="YgxCESBMvR3g6pSDMQeH-145" target="YgxCESBMvR3g6pSDMQeH-139" edge="1">
          <mxGeometry relative="1" as="geometry">
            <mxPoint x="2947" y="2910" as="sourcePoint" />
            <mxPoint x="2750" y="3010" as="targetPoint" />
          </mxGeometry>
        </mxCell>
        <mxCell id="YgxCESBMvR3g6pSDMQeH-175" value="" style="edgeStyle=none;rounded=0;orthogonalLoop=1;jettySize=auto;html=1;exitX=-0.046;exitY=0.436;exitDx=0;exitDy=0;exitPerimeter=0;" parent="1" source="YgxCESBMvR3g6pSDMQeH-139" target="YgxCESBMvR3g6pSDMQeH-140" edge="1">
          <mxGeometry relative="1" as="geometry">
            <mxPoint x="2692" y="3006" as="sourcePoint" />
            <mxPoint x="2627" y="3008" as="targetPoint" />
          </mxGeometry>
        </mxCell>
        <mxCell id="YgxCESBMvR3g6pSDMQeH-177" value="Λίστα &quot;δραστηριότητες&quot;" style="ellipse;shape=umlEntity;whiteSpace=wrap;html=1;fontSize=11.5;fillColor=#FF0000;fontColor=#FFFFFF;" parent="1" vertex="1">
          <mxGeometry x="2220" y="2390" width="80" height="79" as="geometry" />
        </mxCell>
        <mxCell id="YgxCESBMvR3g6pSDMQeH-178" value="" style="edgeStyle=none;rounded=0;orthogonalLoop=1;jettySize=auto;html=1;strokeColor=#FF0000;exitX=0.812;exitY=0.913;exitDx=0;exitDy=0;exitPerimeter=0;" parent="1" source="YgxCESBMvR3g6pSDMQeH-162" target="uev7HApPTx16p5mjtVpH-3" edge="1">
          <mxGeometry relative="1" as="geometry">
            <mxPoint x="2620" y="2260" as="sourcePoint" />
            <mxPoint x="2410" y="2250" as="targetPoint" />
          </mxGeometry>
        </mxCell>
        <mxCell id="uev7HApPTx16p5mjtVpH-3" value="Λήψη δραστηριοτήτων" style="ellipse;shape=umlControl;whiteSpace=wrap;html=1;strokeColor=#000000;" parent="1" vertex="1">
          <mxGeometry x="2853" y="2440" width="87" height="100" as="geometry" />
        </mxCell>
        <mxCell id="uev7HApPTx16p5mjtVpH-4" value="" style="edgeStyle=none;rounded=0;orthogonalLoop=1;jettySize=auto;html=1;exitX=0.778;exitY=0.211;exitDx=0;exitDy=0;exitPerimeter=0;" parent="1" source="uev7HApPTx16p5mjtVpH-3" target="YgxCESBMvR3g6pSDMQeH-167" edge="1">
          <mxGeometry relative="1" as="geometry">
            <mxPoint x="2911" y="2552" as="sourcePoint" />
            <mxPoint x="2926" y="2602" as="targetPoint" />
          </mxGeometry>
        </mxCell>
        <mxCell id="uev7HApPTx16p5mjtVpH-6" value="Λήψη θερμίδων που καίγονται ανά ώρα&amp;nbsp;" style="ellipse;shape=umlControl;whiteSpace=wrap;html=1;strokeColor=#000000;" parent="1" vertex="1">
          <mxGeometry x="3090" y="2770" width="100" height="120" as="geometry" />
        </mxCell>
        <mxCell id="uev7HApPTx16p5mjtVpH-7" value="" style="edgeStyle=none;rounded=0;orthogonalLoop=1;jettySize=auto;html=1;entryX=0;entryY=1;entryDx=0;entryDy=0;exitX=0.707;exitY=0.167;exitDx=0;exitDy=0;exitPerimeter=0;" parent="1" source="uev7HApPTx16p5mjtVpH-6" target="YgxCESBMvR3g6pSDMQeH-171" edge="1">
          <mxGeometry relative="1" as="geometry">
            <mxPoint x="3097" y="2861" as="sourcePoint" />
            <mxPoint x="3042" y="2883" as="targetPoint" />
          </mxGeometry>
        </mxCell>
        <mxCell id="vRVDnnCxsj3g521nYW9U-1" value="(προσπέλαση ημ. λίστας κατανάλωσης)" style="edgeLabel;html=1;align=center;verticalAlign=middle;resizable=0;points=[];fontSize=12;rotation=50;" vertex="1" connectable="0" parent="1">
          <mxGeometry x="2950.0005673409605" y="3019.9992896575495" as="geometry">
            <mxPoint x="-9" y="6" as="offset" />
          </mxGeometry>
        </mxCell>
      </root>
    </mxGraphModel>
  </diagram>
</mxfile>
